<svg width="16" height="16" viewBox="0 0 16 16" fill="none" xmlns="http://www.w3.org/2000/svg">
<path d="M12.666 1.33301H3.33268C2.96449 1.33301 2.66602 1.63148 2.66602 1.99967V13.9997C2.66602 14.3679 2.96449 14.6663 3.33268 14.6663H12.666C13.0342 14.6663 13.3327 14.3679 13.3327 13.9997V1.99967C13.3327 1.63148 13.0342 1.33301 12.666 1.33301Z" stroke="#F8F8F8" stroke-width="1.33333" stroke-linecap="round" stroke-linejoin="round"/>
<path d="M11.3327 3.66699H4.66602V6.66699H11.3327V3.66699Z" stroke="#F8F8F8" stroke-width="1.33333" stroke-linecap="round" stroke-linejoin="round"/>
<path d="M5.66667 9.33333C6.03486 9.33333 6.33333 9.03486 6.33333 8.66667C6.33333 8.29848 6.03486 8 5.66667 8C5.29848 8 5 8.29848 5 8.66667C5 9.03486 5.29848 9.33333 5.66667 9.33333Z" fill="#F8F8F8"/>
<path d="M5.66667 11.3333C6.03486 11.3333 6.33333 11.0349 6.33333 10.6667C6.33333 10.2985 6.03486 10 5.66667 10C5.29848 10 5 10.2985 5 10.6667C5 11.0349 5.29848 11.3333 5.66667 11.3333Z" fill="#F8F8F8"/>
<path d="M5.66667 13.3333C6.03486 13.3333 6.33333 13.0349 6.33333 12.6667C6.33333 12.2985 6.03486 12 5.66667 12C5.29848 12 5 12.2985 5 12.6667C5 13.0349 5.29848 13.3333 5.66667 13.3333Z" fill="#F8F8F8"/>
<path d="M7.9987 9.33333C8.36689 9.33333 8.66536 9.03486 8.66536 8.66667C8.66536 8.29848 8.36689 8 7.9987 8C7.63051 8 7.33203 8.29848 7.33203 8.66667C7.33203 9.03486 7.63051 9.33333 7.9987 9.33333Z" fill="#F8F8F8"/>
<path d="M7.9987 11.3333C8.36689 11.3333 8.66536 11.0349 8.66536 10.6667C8.66536 10.2985 8.36689 10 7.9987 10C7.63051 10 7.33203 10.2985 7.33203 10.6667C7.33203 11.0349 7.63051 11.3333 7.9987 11.3333Z" fill="#F8F8F8"/>
<path d="M7.9987 13.3333C8.36689 13.3333 8.66536 13.0349 8.66536 12.6667C8.66536 12.2985 8.36689 12 7.9987 12C7.63051 12 7.33203 12.2985 7.33203 12.6667C7.33203 13.0349 7.63051 13.3333 7.9987 13.3333Z" fill="#F8F8F8"/>
<path d="M10.3346 9.33333C10.7028 9.33333 11.0013 9.03486 11.0013 8.66667C11.0013 8.29848 10.7028 8 10.3346 8C9.96645 8 9.66797 8.29848 9.66797 8.66667C9.66797 9.03486 9.96645 9.33333 10.3346 9.33333Z" fill="#F8F8F8"/>
<path d="M10.3346 11.3333C10.7028 11.3333 11.0013 11.0349 11.0013 10.6667C11.0013 10.2985 10.7028 10 10.3346 10C9.96645 10 9.66797 10.2985 9.66797 10.6667C9.66797 11.0349 9.96645 11.3333 10.3346 11.3333Z" fill="#F8F8F8"/>
<path d="M10.3346 13.3333C10.7028 13.3333 11.0013 13.0349 11.0013 12.6667C11.0013 12.2985 10.7028 12 10.3346 12C9.96645 12 9.66797 12.2985 9.66797 12.6667C9.66797 13.0349 9.96645 13.3333 10.3346 13.3333Z" fill="#F8F8F8"/>
</svg>
